<svg preserveAspectRatio="none" width="100%" height="100%" overflow="visible" style="display: block;" viewBox="0 0 20.1686 28.1667" fill="none" xmlns="http://www.w3.org/2000/svg">
<path id="Vector" d="M10.0843 14.0833L6.14068 17.9886C2.24403 21.8473 0.295703 23.7767 0.841152 25.4414C0.888037 25.5844 0.946262 25.7236 1.01528 25.8576C1.81823 27.4167 4.57358 27.4167 10.0843 27.4167C15.595 27.4167 18.3503 27.4167 19.1533 25.8576C19.2223 25.7236 19.2805 25.5844 19.3274 25.4414C19.8729 23.7767 17.9245 21.8473 14.0279 17.9886L10.0843 14.0833ZM10.0843 14.0833L14.0279 10.1781C17.9245 6.31933 19.8729 4.38995 19.3274 2.72532C19.2805 2.58223 19.2223 2.44303 19.1533 2.30902C18.3503 0.75 15.595 0.75 10.0843 0.75C4.57358 0.75 1.81823 0.75 1.01528 2.30902C0.946262 2.44303 0.888037 2.58223 0.841152 2.72532C0.295703 4.38995 2.24403 6.31933 6.14069 10.1781L10.0843 14.0833Z" stroke="var(--stroke-0, #AEB9E1)" stroke-width="1.5"/>
</svg>
